<mxfile host="Electron" agent="Mozilla/5.0 (Windows NT 10.0; Win64; x64) AppleWebKit/537.36 (KHTML, like Gecko) draw.io/28.0.6 Chrome/138.0.7204.100 Electron/37.2.3 Safari/537.36" version="28.0.6">
  <diagram name="Page-1" id="4_Is2m9b1BqryH1hJh4j">
    <mxGraphModel dx="2453" dy="2063" grid="1" gridSize="10" guides="1" tooltips="1" connect="1" arrows="1" fold="1" page="1" pageScale="1" pageWidth="850" pageHeight="1100" math="0" shadow="0">
      <root>
        <mxCell id="0" />
        <mxCell id="1" parent="0" />
        <mxCell id="a03ZI5crFxH0-MkLv4u1-1" value="&lt;font style=&quot;font-size: 42px;&quot;&gt;Integration Model&amp;nbsp;&lt;/font&gt;" style="text;html=1;align=center;verticalAlign=middle;whiteSpace=wrap;rounded=0;" parent="1" vertex="1">
          <mxGeometry x="-10" y="-20" width="360" height="90" as="geometry" />
        </mxCell>
        <mxCell id="a03ZI5crFxH0-MkLv4u1-2" value="&lt;font style=&quot;font-size: 16px;&quot;&gt;(How tables are related)&lt;/font&gt;" style="text;html=1;align=center;verticalAlign=middle;whiteSpace=wrap;rounded=0;" parent="1" vertex="1">
          <mxGeometry y="40" width="190" height="30" as="geometry" />
        </mxCell>
        <mxCell id="a03ZI5crFxH0-MkLv4u1-3" value="crm_cust_info" style="swimlane;fontStyle=0;childLayout=stackLayout;horizontal=1;startSize=30;horizontalStack=0;resizeParent=1;resizeParentMax=0;resizeLast=0;collapsible=1;marginBottom=0;whiteSpace=wrap;html=1;rounded=1;fillColor=#1ba1e2;fontColor=#ffffff;strokeColor=#006EAF;fontSize=24;" parent="1" vertex="1">
          <mxGeometry x="420.31" y="470" width="270" height="110" as="geometry" />
        </mxCell>
        <mxCell id="a03ZI5crFxH0-MkLv4u1-4" value="cst_id" style="text;strokeColor=none;fillColor=none;align=left;verticalAlign=middle;spacingLeft=4;spacingRight=4;overflow=hidden;points=[[0,0.5],[1,0.5]];portConstraint=eastwest;rotatable=0;whiteSpace=wrap;html=1;fontSize=24;" parent="a03ZI5crFxH0-MkLv4u1-3" vertex="1">
          <mxGeometry y="30" width="270" height="40" as="geometry" />
        </mxCell>
        <mxCell id="a03ZI5crFxH0-MkLv4u1-24" value="cst_key" style="text;strokeColor=none;fillColor=none;align=left;verticalAlign=middle;spacingLeft=4;spacingRight=4;overflow=hidden;points=[[0,0.5],[1,0.5]];portConstraint=eastwest;rotatable=0;whiteSpace=wrap;html=1;fontSize=24;" parent="a03ZI5crFxH0-MkLv4u1-3" vertex="1">
          <mxGeometry y="70" width="270" height="40" as="geometry" />
        </mxCell>
        <mxCell id="a03ZI5crFxH0-MkLv4u1-7" value="&lt;font style=&quot;font-size: 20px;&quot;&gt;Customer Information&lt;/font&gt;" style="text;html=1;align=center;verticalAlign=middle;whiteSpace=wrap;rounded=0;" parent="1" vertex="1">
          <mxGeometry x="457.19" y="440" width="203.12" height="30" as="geometry" />
        </mxCell>
        <mxCell id="a03ZI5crFxH0-MkLv4u1-8" value="crm_prd_info" style="swimlane;fontStyle=0;childLayout=stackLayout;horizontal=1;startSize=30;horizontalStack=0;resizeParent=1;resizeParentMax=0;resizeLast=0;collapsible=1;marginBottom=0;whiteSpace=wrap;html=1;rounded=1;fillColor=#1ba1e2;fontColor=#ffffff;strokeColor=#006EAF;fontSize=24;arcSize=4;" parent="1" vertex="1">
          <mxGeometry x="420.31" y="270" width="270" height="70" as="geometry" />
        </mxCell>
        <mxCell id="a03ZI5crFxH0-MkLv4u1-9" value="prd_key" style="text;strokeColor=none;fillColor=none;align=left;verticalAlign=middle;spacingLeft=4;spacingRight=4;overflow=hidden;points=[[0,0.5],[1,0.5]];portConstraint=eastwest;rotatable=0;whiteSpace=wrap;html=1;fontSize=24;" parent="a03ZI5crFxH0-MkLv4u1-8" vertex="1">
          <mxGeometry y="30" width="270" height="40" as="geometry" />
        </mxCell>
        <mxCell id="a03ZI5crFxH0-MkLv4u1-10" value="&lt;span style=&quot;font-size: 20px;&quot;&gt;Current &amp;amp; History Product Information&amp;nbsp;&lt;/span&gt;" style="text;html=1;align=center;verticalAlign=middle;whiteSpace=wrap;rounded=0;" parent="1" vertex="1">
          <mxGeometry x="370" y="240" width="370.62" height="30" as="geometry" />
        </mxCell>
        <mxCell id="a03ZI5crFxH0-MkLv4u1-11" value="crm_sales_details" style="swimlane;fontStyle=0;childLayout=stackLayout;horizontal=1;startSize=30;horizontalStack=0;resizeParent=1;resizeParentMax=0;resizeLast=0;collapsible=1;marginBottom=0;whiteSpace=wrap;html=1;rounded=1;fillColor=#1ba1e2;fontColor=#ffffff;strokeColor=#006EAF;fontSize=24;" parent="1" vertex="1">
          <mxGeometry x="30" y="350" width="270" height="110" as="geometry" />
        </mxCell>
        <mxCell id="a03ZI5crFxH0-MkLv4u1-12" value="prd_key&amp;nbsp;" style="text;strokeColor=none;fillColor=none;align=left;verticalAlign=middle;spacingLeft=4;spacingRight=4;overflow=hidden;points=[[0,0.5],[1,0.5]];portConstraint=eastwest;rotatable=0;whiteSpace=wrap;html=1;fontSize=24;" parent="a03ZI5crFxH0-MkLv4u1-11" vertex="1">
          <mxGeometry y="30" width="270" height="40" as="geometry" />
        </mxCell>
        <mxCell id="a03ZI5crFxH0-MkLv4u1-14" value="cst_id" style="text;strokeColor=none;fillColor=none;align=left;verticalAlign=middle;spacingLeft=4;spacingRight=4;overflow=hidden;points=[[0,0.5],[1,0.5]];portConstraint=eastwest;rotatable=0;whiteSpace=wrap;html=1;fontSize=24;" parent="a03ZI5crFxH0-MkLv4u1-11" vertex="1">
          <mxGeometry y="70" width="270" height="40" as="geometry" />
        </mxCell>
        <mxCell id="a03ZI5crFxH0-MkLv4u1-13" value="&lt;span style=&quot;font-size: 20px;&quot;&gt;Transactional Records about Sales &amp;amp; Orders&lt;/span&gt;" style="text;html=1;align=center;verticalAlign=middle;whiteSpace=wrap;rounded=0;" parent="1" vertex="1">
          <mxGeometry x="30" y="300" width="270" height="50" as="geometry" />
        </mxCell>
        <mxCell id="a03ZI5crFxH0-MkLv4u1-19" style="edgeStyle=orthogonalEdgeStyle;rounded=0;orthogonalLoop=1;jettySize=auto;html=1;entryX=0;entryY=0.5;entryDx=0;entryDy=0;" parent="1" source="a03ZI5crFxH0-MkLv4u1-14" target="a03ZI5crFxH0-MkLv4u1-4" edge="1">
          <mxGeometry relative="1" as="geometry" />
        </mxCell>
        <mxCell id="a03ZI5crFxH0-MkLv4u1-21" value="erp_CUST_AZ12" style="swimlane;fontStyle=0;childLayout=stackLayout;horizontal=1;startSize=30;horizontalStack=0;resizeParent=1;resizeParentMax=0;resizeLast=0;collapsible=1;marginBottom=0;whiteSpace=wrap;html=1;rounded=1;fillColor=#fa6800;fontColor=#000000;strokeColor=#C73500;fontSize=24;" parent="1" vertex="1">
          <mxGeometry x="1050.31" y="440" width="270" height="70" as="geometry" />
        </mxCell>
        <mxCell id="a03ZI5crFxH0-MkLv4u1-22" value="cid" style="text;strokeColor=none;fillColor=none;align=left;verticalAlign=middle;spacingLeft=4;spacingRight=4;overflow=hidden;points=[[0,0.5],[1,0.5]];portConstraint=eastwest;rotatable=0;whiteSpace=wrap;html=1;fontSize=24;" parent="a03ZI5crFxH0-MkLv4u1-21" vertex="1">
          <mxGeometry y="30" width="270" height="40" as="geometry" />
        </mxCell>
        <mxCell id="a03ZI5crFxH0-MkLv4u1-23" value="&lt;span style=&quot;font-size: 20px;&quot;&gt;Extra Customer Information (Birthdate)&lt;/span&gt;" style="text;html=1;align=center;verticalAlign=middle;whiteSpace=wrap;rounded=0;" parent="1" vertex="1">
          <mxGeometry x="1000" y="415" width="370.62" height="30" as="geometry" />
        </mxCell>
        <mxCell id="a03ZI5crFxH0-MkLv4u1-25" style="edgeStyle=orthogonalEdgeStyle;rounded=0;orthogonalLoop=1;jettySize=auto;html=1;entryX=1;entryY=0.5;entryDx=0;entryDy=0;" parent="1" source="a03ZI5crFxH0-MkLv4u1-22" target="a03ZI5crFxH0-MkLv4u1-24" edge="1">
          <mxGeometry relative="1" as="geometry" />
        </mxCell>
        <mxCell id="a03ZI5crFxH0-MkLv4u1-26" style="edgeStyle=orthogonalEdgeStyle;rounded=0;orthogonalLoop=1;jettySize=auto;html=1;entryX=0;entryY=0.5;entryDx=0;entryDy=0;" parent="1" source="a03ZI5crFxH0-MkLv4u1-12" target="a03ZI5crFxH0-MkLv4u1-9" edge="1">
          <mxGeometry relative="1" as="geometry" />
        </mxCell>
        <mxCell id="a03ZI5crFxH0-MkLv4u1-27" value="erp_LOC_A101" style="swimlane;fontStyle=0;childLayout=stackLayout;horizontal=1;startSize=30;horizontalStack=0;resizeParent=1;resizeParentMax=0;resizeLast=0;collapsible=1;marginBottom=0;whiteSpace=wrap;html=1;rounded=1;fillColor=#fa6800;fontColor=#000000;strokeColor=#C73500;fontSize=24;" parent="1" vertex="1">
          <mxGeometry x="1050.31" y="565" width="270" height="70" as="geometry" />
        </mxCell>
        <mxCell id="a03ZI5crFxH0-MkLv4u1-28" value="cid" style="text;strokeColor=none;fillColor=none;align=left;verticalAlign=middle;spacingLeft=4;spacingRight=4;overflow=hidden;points=[[0,0.5],[1,0.5]];portConstraint=eastwest;rotatable=0;whiteSpace=wrap;html=1;fontSize=24;" parent="a03ZI5crFxH0-MkLv4u1-27" vertex="1">
          <mxGeometry y="30" width="270" height="40" as="geometry" />
        </mxCell>
        <mxCell id="a03ZI5crFxH0-MkLv4u1-29" value="&lt;span style=&quot;font-size: 20px;&quot;&gt;Location of Customers (Country)&lt;/span&gt;" style="text;html=1;align=center;verticalAlign=middle;whiteSpace=wrap;rounded=0;" parent="1" vertex="1">
          <mxGeometry x="1000" y="535" width="370.62" height="30" as="geometry" />
        </mxCell>
        <mxCell id="a03ZI5crFxH0-MkLv4u1-30" style="edgeStyle=orthogonalEdgeStyle;rounded=0;orthogonalLoop=1;jettySize=auto;html=1;entryX=1;entryY=0.5;entryDx=0;entryDy=0;" parent="1" source="a03ZI5crFxH0-MkLv4u1-28" target="a03ZI5crFxH0-MkLv4u1-24" edge="1">
          <mxGeometry relative="1" as="geometry" />
        </mxCell>
        <mxCell id="a03ZI5crFxH0-MkLv4u1-31" value="erp_PX_CAT_G1V2" style="swimlane;fontStyle=0;childLayout=stackLayout;horizontal=1;startSize=30;horizontalStack=0;resizeParent=1;resizeParentMax=0;resizeLast=0;collapsible=1;marginBottom=0;whiteSpace=wrap;html=1;rounded=1;fillColor=#fa6800;fontColor=#000000;strokeColor=#C73500;fontSize=24;" parent="1" vertex="1">
          <mxGeometry x="1040.31" y="270" width="270" height="70" as="geometry" />
        </mxCell>
        <mxCell id="a03ZI5crFxH0-MkLv4u1-32" value="id" style="text;strokeColor=none;fillColor=none;align=left;verticalAlign=middle;spacingLeft=4;spacingRight=4;overflow=hidden;points=[[0,0.5],[1,0.5]];portConstraint=eastwest;rotatable=0;whiteSpace=wrap;html=1;fontSize=24;" parent="a03ZI5crFxH0-MkLv4u1-31" vertex="1">
          <mxGeometry y="30" width="270" height="40" as="geometry" />
        </mxCell>
        <mxCell id="a03ZI5crFxH0-MkLv4u1-33" value="&lt;span style=&quot;font-size: 20px;&quot;&gt;Product Categories&amp;nbsp;&lt;/span&gt;" style="text;html=1;align=center;verticalAlign=middle;whiteSpace=wrap;rounded=0;" parent="1" vertex="1">
          <mxGeometry x="1050.31" y="240" width="250" height="30" as="geometry" />
        </mxCell>
        <mxCell id="a03ZI5crFxH0-MkLv4u1-34" style="edgeStyle=orthogonalEdgeStyle;rounded=0;orthogonalLoop=1;jettySize=auto;html=1;entryX=1;entryY=0.5;entryDx=0;entryDy=0;" parent="1" source="a03ZI5crFxH0-MkLv4u1-32" target="a03ZI5crFxH0-MkLv4u1-9" edge="1">
          <mxGeometry relative="1" as="geometry" />
        </mxCell>
        <mxCell id="uka77EQpx7Trk-YLMc3u-1" value="" style="rounded=1;whiteSpace=wrap;html=1;arcSize=5;fillColor=none;dashed=1;" parent="1" vertex="1">
          <mxGeometry y="160" width="720" height="520" as="geometry" />
        </mxCell>
        <mxCell id="uka77EQpx7Trk-YLMc3u-2" value="&lt;font style=&quot;font-size: 31px;&quot;&gt;CRM&lt;/font&gt;" style="rounded=1;whiteSpace=wrap;html=1;fillColor=#1ba1e2;fontColor=#ffffff;strokeColor=#006EAF;" parent="1" vertex="1">
          <mxGeometry x="235" y="120" width="250" height="60" as="geometry" />
        </mxCell>
        <mxCell id="uka77EQpx7Trk-YLMc3u-3" value="" style="rounded=1;whiteSpace=wrap;html=1;arcSize=5;fillColor=none;dashed=1;" parent="1" vertex="1">
          <mxGeometry x="800" y="160" width="780" height="520" as="geometry" />
        </mxCell>
        <mxCell id="uka77EQpx7Trk-YLMc3u-4" value="&lt;span style=&quot;font-size: 31px;&quot;&gt;ERP&lt;/span&gt;" style="rounded=1;whiteSpace=wrap;html=1;fillColor=#fa6800;fontColor=#000000;strokeColor=#C73500;" parent="1" vertex="1">
          <mxGeometry x="1055" y="120" width="250" height="60" as="geometry" />
        </mxCell>
        <mxCell id="wEiJ-pzUCNLLrLl97rIX-1" value="&lt;span style=&quot;font-size: 20px;&quot;&gt;PRODUCT&lt;/span&gt;" style="text;html=1;strokeColor=#B20000;fillColor=#e51400;align=center;verticalAlign=middle;whiteSpace=wrap;overflow=hidden;fontColor=#ffffff;" vertex="1" parent="1">
          <mxGeometry x="420" y="340" width="270" height="30" as="geometry" />
        </mxCell>
        <mxCell id="wEiJ-pzUCNLLrLl97rIX-2" value="&lt;span style=&quot;font-size: 20px;&quot;&gt;PRODUCT&lt;/span&gt;" style="text;html=1;strokeColor=#B20000;fillColor=#e51400;align=center;verticalAlign=middle;whiteSpace=wrap;overflow=hidden;fontColor=#ffffff;" vertex="1" parent="1">
          <mxGeometry x="1040.31" y="340" width="270" height="30" as="geometry" />
        </mxCell>
        <mxCell id="wEiJ-pzUCNLLrLl97rIX-3" value="&lt;span style=&quot;font-size: 20px;&quot;&gt;CUSTOMER&lt;/span&gt;" style="text;html=1;strokeColor=#314354;fillColor=#647687;align=center;verticalAlign=middle;whiteSpace=wrap;overflow=hidden;fontColor=#ffffff;" vertex="1" parent="1">
          <mxGeometry x="420" y="580" width="270" height="30" as="geometry" />
        </mxCell>
        <mxCell id="wEiJ-pzUCNLLrLl97rIX-4" value="&lt;span style=&quot;font-size: 20px;&quot;&gt;CUSTOMER&lt;/span&gt;" style="text;html=1;strokeColor=#314354;fillColor=#647687;align=center;verticalAlign=middle;whiteSpace=wrap;overflow=hidden;fontColor=#ffffff;" vertex="1" parent="1">
          <mxGeometry x="1045" y="505" width="270" height="30" as="geometry" />
        </mxCell>
        <mxCell id="wEiJ-pzUCNLLrLl97rIX-5" value="&lt;span style=&quot;font-size: 20px;&quot;&gt;CUSTOMER&lt;/span&gt;" style="text;html=1;strokeColor=#314354;fillColor=#647687;align=center;verticalAlign=middle;whiteSpace=wrap;overflow=hidden;fontColor=#ffffff;" vertex="1" parent="1">
          <mxGeometry x="1050.31" y="630" width="270" height="30" as="geometry" />
        </mxCell>
        <mxCell id="wEiJ-pzUCNLLrLl97rIX-6" value="&lt;span style=&quot;font-size: 20px;&quot;&gt;SALES&lt;/span&gt;" style="text;html=1;strokeColor=#10739e;fillColor=#b1ddf0;align=center;verticalAlign=middle;whiteSpace=wrap;overflow=hidden;" vertex="1" parent="1">
          <mxGeometry x="30" y="460" width="270" height="30" as="geometry" />
        </mxCell>
      </root>
    </mxGraphModel>
  </diagram>
</mxfile>
